<?xml version="1.0" standalone="no"?>
<!DOCTYPE svg PUBLIC "-//W3C//DTD SVG 1.1//EN" "http://www.w3.org/Graphics/SVG/1.1/DTD/svg11.dtd" >
<svg xmlns="http://www.w3.org/2000/svg">
<metadata></metadata>
<defs>
<font id="ticker_taperegular" horiz-adv-x="1188" >
<font-face units-per-em="2048" ascent="1638" descent="-410" />
<missing-glyph horiz-adv-x="717" />
<glyph horiz-adv-x="2048" />
<glyph horiz-adv-x="2048" />
<glyph unicode="&#xd;" horiz-adv-x="717" />
<glyph unicode=" "  horiz-adv-x="717" />
<glyph unicode="&#x09;" horiz-adv-x="717" />
<glyph unicode="&#xa0;" horiz-adv-x="717" />
<glyph unicode="!" horiz-adv-x="328" d="M82 82q0 34 24 58t58 24t58 -24t24 -58t-24 -58t-58 -24t-58 24t-24 58zM82 459v1138h164v-1138h-164z" />
<glyph unicode="&#x22;" horiz-adv-x="655" d="M82 1413v328h164v-328h-164zM408 1413v328h164v-328h-164z" />
<glyph unicode="#" horiz-adv-x="1290" d="M82 463l29 164h165l62 346h-166l29 164h166l82 460h163l-82 -460h347l81 460h164l-82 -460h164l-28 -164h-164l-62 -346h164l-29 -164h-163l-82 -463h-164l82 463h-346l-82 -463h-164l82 463h-166zM440 627h346l62 346h-346z" />
<glyph unicode="$" horiz-adv-x="1085" d="M82 1178q0 172 106 299.5t275 154.5v109h164v-111q143 -24 245 -127l-114 -114q-52 54 -131 75v-592q169 -28 273 -154t104 -298q0 -171 -104.5 -296.5t-272.5 -156.5v-110h-164v108q-141 25 -246 129l115 115q62 -61 131 -76v590q-165 27 -273 157t-108 298zM246 1178 q0 -102 59 -182q61 -84 158 -105v573q-217 -64 -217 -286zM627 135q96 27 154.5 106t58.5 179q0 103 -57.5 181t-155.5 106v-572z" />
<glyph unicode="%" horiz-adv-x="1270" d="M82 0l924 1597h190l-924 -1597h-190zM82 1311q0 121 83 203.5t204 82.5q123 0 204.5 -81.5t81.5 -204.5t-81 -205t-205 -82q-121 0 -204 82.5t-83 204.5zM246 1311q0 -52 35.5 -87.5t87.5 -35.5q53 0 88 35t35 88t-35 88t-88 35q-52 0 -87.5 -35.5t-35.5 -87.5zM623 287 q0 121 82 203.5t204 82.5q123 0 205 -81t82 -205q0 -125 -81 -206t-206 -81q-121 0 -203.5 83t-82.5 204zM786 287q0 -52 35.5 -87.5t87.5 -35.5q54 0 88.5 34.5t34.5 88.5t-34.5 88.5t-88.5 34.5q-50 0 -86.5 -36.5t-36.5 -86.5z" />
<glyph unicode="&#x26;" horiz-adv-x="1761" d="M82 543q0 168 91.5 311t244.5 215q-152 123 -152 313q0 166 117 283t283 117q167 0 283 -116.5t116 -283.5q0 -193 -152 -313q90 -41 195 -147l264 -265l307 308v-232l-192 -192l192 -191v-229l-307 305l-315 -315q-152 -152 -391 -152q-242 0 -413 171t-171 413z M246 543q0 -175 122.5 -297.5t297.5 -122.5t282 108l309 312l-272 272q-146 146 -319 146q-175 0 -297.5 -121.5t-122.5 -296.5zM430 1382q0 -100 68 -167.5t168 -67.5q99 0 167 68t68 167q0 100 -67.5 168t-167.5 68t-168 -68t-68 -168z" />
<glyph unicode="'" horiz-adv-x="328" d="M82 1413v328h164v-328h-164z" />
<glyph unicode="(" horiz-adv-x="655" d="M82 891q0 522 369 891l116 -117q-321 -321 -321 -774t321 -774l-116 -117q-369 377 -369 891z" />
<glyph unicode=")" horiz-adv-x="655" d="M82 117q152 152 236.5 355t84.5 417q0 455 -321 776l117 117q368 -374 368 -891q0 -523 -368 -891z" />
<glyph unicode="*" horiz-adv-x="1106" d="M82 1044v164h272l-192 193l117 117l192 -193v272h164v-272l192 193l117 -117l-192 -193h272v-164h-272l192 -192l-117 -117l-192 193v-273h-164v273l-192 -193l-117 117l192 192h-272z" />
<glyph unicode="+" horiz-adv-x="1024" d="M82 473v164h348v350h164v-350h350v-164h-350v-348h-164v348h-348z" />
<glyph unicode="," horiz-adv-x="410" d="M20 -190l111 215q-49 35 -49 98q0 53 35 88t88 35q54 0 88.5 -34.5t34.5 -88.5q0 -32 -13 -57l-131 -256h-164z" />
<glyph unicode="-" horiz-adv-x="1024" d="M82 473v164h862v-164h-862z" />
<glyph unicode="." horiz-adv-x="410" d="M82 123q0 53 35 88t88 35q54 0 88.5 -34.5t34.5 -88.5q0 -53 -35 -88t-88 -35q-52 0 -87.5 35.5t-35.5 87.5z" />
<glyph unicode="/" horiz-adv-x="1270" d="M0 -143l1087 1884h191l-1088 -1884h-190z" />
<glyph unicode="0" d="M82 471v651q0 213 149.5 362.5t362.5 149.5t362.5 -149.5t149.5 -362.5v-651q0 -213 -149.5 -362.5t-362.5 -149.5t-362.5 149.5t-149.5 362.5zM246 471q0 -145 101.5 -246.5t246.5 -101.5q144 0 246 102t102 246v651q0 145 -101.5 246.5t-246.5 101.5t-246.5 -101.5 t-101.5 -246.5v-651z" />
<glyph unicode="1" horiz-adv-x="573" d="M82 1124l244 473h163v-1597h-163v1282l-80 -158h-164z" />
<glyph unicode="2" horiz-adv-x="1085" d="M82 0l549 979q27 47 53 94q25 52 25 105q0 126 -85 211.5t-212 85.5q-132 0 -215 -86l-115 114q132 135 330 135q191 0 325.5 -134.5t134.5 -325.5q0 -76 -43 -164l-84 -150l-395 -702h656v-164z" />
<glyph unicode="3" horiz-adv-x="676" d="M82 0v154q145 0 246.5 101.5t101.5 246.5q0 185 -151 286q151 108 151 289q0 145 -101.5 246.5t-246.5 101.5v154q220 -30 358 -153q154 -136 154 -349q0 -155 -88 -289q88 -130 88 -286q0 -212 -155 -348q-137 -120 -357 -154z" />
<glyph unicode="4" horiz-adv-x="1065" d="M82 446l596 1192v-1028h307v-164h-307v-446h-164v446h-432zM348 610h166v334z" />
<glyph unicode="5" horiz-adv-x="922" d="M57 94l115 115q83 -86 211 -86q126 0 211.5 85.5t85.5 211.5q0 74 -34 141q-79 156 -263 156h-301v880h682v-163h-518v-553h137q190 0 325.5 -135.5t135.5 -325.5t-135.5 -325.5t-325.5 -135.5q-193 0 -326 135z" />
<glyph unicode="6" horiz-adv-x="1331" d="M82 553q0 242 166 408l637 636h231l-465 -460q250 0 424 -167.5t174 -416.5q0 -241 -171 -412.5t-412 -171.5q-242 0 -413 171t-171 413zM246 553q0 -175 122.5 -297.5t297.5 -122.5q176 0 297.5 122.5t121.5 297.5q0 96 -47 194q-109 226 -372 226q-182 0 -301 -119.5 t-119 -300.5z" />
<glyph unicode="7" horiz-adv-x="1126" d="M82 0l739 1436h-737v163l985 -2l-823 -1597h-164z" />
<glyph unicode="8" horiz-adv-x="1024" d="M82 430q0 126 67 231t181 158q-114 53 -181 158t-67 231q0 179 125.5 304.5t304.5 125.5t304.5 -125.5t125.5 -304.5q0 -127 -66 -230.5t-180 -158.5q113 -54 179.5 -159t66.5 -230q0 -179 -125.5 -304.5t-304.5 -125.5t-304.5 125.5t-125.5 304.5zM246 430 q0 -111 77.5 -188.5t188.5 -77.5t188.5 77.5t77.5 188.5q0 115 -76 190.5t-190 75.5q-111 0 -188.5 -77.5t-77.5 -188.5zM246 1208q0 -109 78.5 -187.5t187.5 -78.5q111 0 188.5 77.5t77.5 188.5q0 115 -76 191t-190 76q-111 0 -188.5 -78t-77.5 -189z" />
<glyph unicode="9" horiz-adv-x="1331" d="M82 1044q0 242 171 413t413 171q241 0 412 -171.5t171 -412.5t-166 -407l-637 -637h-231l465 461q-250 0 -424 167t-174 416zM246 1044q0 -95 48 -194q109 -225 372 -225q120 0 224 62.5t156 168.5q39 80 39 188q0 175 -122 297.5t-297 122.5t-297.5 -122.5 t-122.5 -297.5z" />
<glyph unicode=":" horiz-adv-x="410" d="M82 123q0 53 35 88t88 35q54 0 88.5 -34.5t34.5 -88.5q0 -53 -35 -88t-88 -35q-52 0 -87.5 35.5t-35.5 87.5zM82 819q0 53 35 88t88 35q54 0 88.5 -34.5t34.5 -88.5q0 -53 -35 -88t-88 -35q-52 0 -87.5 35.5t-35.5 87.5z" />
<glyph unicode=";" horiz-adv-x="410" d="M20 -190l111 215q-49 35 -49 98q0 53 35 88t88 35q54 0 88.5 -34.5t34.5 -88.5q0 -32 -13 -57l-131 -256h-164zM82 817q0 53 35 88t88 35q54 0 88.5 -34.5t34.5 -88.5q0 -53 -35 -88t-88 -35q-52 0 -87.5 35.5t-35.5 87.5z" />
<glyph unicode="&#x3c;" horiz-adv-x="983" d="M82 514l819 424v-168l-502 -258l502 -258v-168z" />
<glyph unicode="=" horiz-adv-x="1024" d="M82 344v164h862v-164h-862zM82 645v164h862v-164h-862z" />
<glyph unicode="&#x3e;" horiz-adv-x="983" d="M82 86v168l502 258l-502 258v168l819 -424z" />
<glyph unicode="?" horiz-adv-x="963" d="M82 1503q132 135 330 135q191 0 325.5 -134.5t134.5 -325.5q0 -123 -61.5 -229.5t-168 -169t-230.5 -62.5q-61 0 -99.5 -36.5t-38.5 -92.5t39 -94.5t95 -38.5q60 0 96 39l114 -117q-89 -86 -210 -86q-122 0 -209.5 87.5t-87.5 209.5q0 124 88 208.5t213 84.5q68 0 125 26 q78 36 125 110t47 161q0 126 -85 211.5t-212 85.5q-132 0 -215 -86zM279 123q0 52 35 87.5t87 35.5q55 0 89 -34t34 -89q0 -54 -34.5 -88.5t-88.5 -34.5q-52 0 -87 35.5t-35 87.5z" />
<glyph unicode="@" horiz-adv-x="1843" d="M82 799q0 347 246.5 593t593.5 246q348 0 593.5 -245.5t245.5 -593.5q0 -347 -246 -593.5t-593 -246.5t-593.5 246.5t-246.5 593.5zM246 799q0 -209 100 -363q94 -145 248.5 -229t327.5 -84q295 0 487 203h-164v94q-148 -135 -348 -135q-213 0 -362.5 149.5t-149.5 362.5 t149.5 362.5t362.5 149.5q200 0 348 -138v41h164v-792h74q114 172 114 379q0 209 -100 363q-94 145 -248 229t-327 84q-209 0 -363 -100q-145 -94 -229 -248.5t-84 -327.5zM549 797q0 -145 101.5 -246.5t246.5 -101.5t246.5 101.5t101.5 246.5t-101.5 246.5t-246.5 101.5 q-144 0 -246 -102t-102 -246z" />
<glyph unicode="A" horiz-adv-x="1597" d="M-57 0q348 654 848 1638l856 -1638h-172l-250 487h-863l-251 -487h-168zM449 651h692l-348 670z" />
<glyph unicode="B" horiz-adv-x="840" d="M82 -2v1601q275 0 456 -115q216 -137 216 -397q0 -154 -88 -288q88 -131 88 -287q0 -143 -77 -260q-166 -252 -595 -254zM242 164q145 0 246.5 101.5t101.5 246.5q0 181 -152 287q152 104 152 288q0 144 -102 246.5t-246 102.5v-1272z" />
<glyph unicode="C" horiz-adv-x="1597" d="M82 799q0 347 246.5 593t593.5 246q336 0 583 -237l-116 -113q-194 187 -467 187q-194 0 -350 -92q-161 -94 -247 -264q-79 -157 -79 -320q0 -176 83 -330.5t229 -249.5q155 -100 364 -100q274 0 467 186l116 -112q-244 -238 -583 -238q-349 0 -594.5 247.5t-245.5 596.5 z" />
<glyph unicode="D" horiz-adv-x="963" d="M82 0v1597q330 0 564.5 -234t234.5 -564q0 -331 -234 -565t-565 -234zM246 184q209 58 340 228t131 387t-130.5 387t-340.5 227v-1229z" />
<glyph unicode="E" d="M82 0v1597h1024v-163h-860v-594h737v-164h-737v-512h860v-164h-1024z" />
<glyph unicode="F" d="M82 0v1597h1024v-163h-860v-594h737v-164h-737v-676h-164z" />
<glyph unicode="G" horiz-adv-x="1843" d="M82 799q0 347 246.5 593t593.5 246q336 0 581 -235l-114 -115q-194 187 -467 187q-173 0 -327.5 -84t-248.5 -229q-100 -154 -100 -363q0 -173 84 -327.5t229 -248.5q154 -100 363 -100q233 0 421 146t238 372h-422v158h602q0 -347 -246 -593.5t-593 -246.5t-593.5 246.5 t-246.5 593.5z" />
<glyph unicode="H" d="M82 0v1597h164v-757h696v757h164v-1597h-164v676h-696v-676h-164z" />
<glyph unicode="I" horiz-adv-x="328" d="M82 0v1597h164v-1597h-164z" />
<glyph unicode="J" horiz-adv-x="430" d="M-164 -451q145 0 246.5 102t101.5 247v1701h164v-1701q0 -213 -149.5 -362.5t-362.5 -149.5v163z" />
<glyph unicode="K" horiz-adv-x="819" d="M82 0v1597h164v-665l346 665h164l-416 -798l416 -799h-164l-346 666v-666h-164z" />
<glyph unicode="L" horiz-adv-x="1065" d="M82 0v1599h164v-1433h737v-164z" />
<glyph unicode="M" horiz-adv-x="1536" d="M82 0v1638l684 -1362l694 1362v-1638h-164v979l-532 -1020l-518 1006v-965h-164z" />
<glyph unicode="N" horiz-adv-x="840" d="M82 0v1638l520 -1036v995h164v-1638l-520 1006v-965h-164z" />
<glyph unicode="O" horiz-adv-x="1843" d="M82 799q0 347 246.5 593t593.5 246q348 0 593.5 -245.5t245.5 -593.5q0 -347 -246 -593.5t-593 -246.5t-593.5 246.5t-246.5 593.5zM246 799q0 -209 100 -363q94 -145 248 -229t328 -84q208 0 362 100q145 94 229 248t84 328q0 194 -93 352t-264 245q-156 79 -318 79 q-194 0 -351 -92q-160 -95 -246 -266q-79 -157 -79 -318z" />
<glyph unicode="P" horiz-adv-x="840" d="M82 -2v1601h164q211 0 359.5 -150.5t148.5 -361.5q0 -212 -150 -362t-362 -150l4 -577h-164zM242 739q144 0 246 102t102 246t-102 246.5t-246 102.5v-697z" />
<glyph unicode="Q" horiz-adv-x="1843" d="M82 799q0 347 246.5 593t593.5 246q348 0 593.5 -245.5t245.5 -593.5q0 -274 -164 -498l301 -301h-233l-178 178q-244 -219 -565 -219q-347 0 -593.5 246.5t-246.5 593.5zM246 799q0 -209 100 -363q94 -145 248.5 -229t327.5 -84q267 0 450 168l-325 325h235l199 -198 q116 171 116 381q0 194 -93 352t-264 245q-156 79 -318 79q-194 0 -351 -92q-160 -95 -246 -266q-79 -157 -79 -318z" />
<glyph unicode="R" horiz-adv-x="840" d="M82 0v1599h164q210 0 359 -150.5t149 -361.5q0 -168 -100 -302.5t-261 -186.5l307 -598h-163l-291 575v-575h-164zM242 739q144 0 246 102t102 246t-102 246.5t-246 102.5v-697z" />
<glyph unicode="S" horiz-adv-x="1085" d="M82 1178q0 190 135.5 325t325.5 135q200 0 329 -135l-114 -114q-83 86 -215 86q-125 0 -211 -86t-86 -211q0 -111 77 -201q82 -96 220 -96q123 0 230 -62t169 -169t62 -230q0 -190 -135.5 -325.5t-325.5 -135.5q-193 0 -326 135l115 115q83 -86 211 -86q126 0 211.5 85.5 t85.5 211.5q0 127 -85.5 212t-211.5 85q-93 0 -177 36q-128 55 -206 170.5t-78 254.5z" />
<glyph unicode="T" horiz-adv-x="1065" d="M82 1434v165l901 -2v-163h-369v-1436h-163v1436h-369z" />
<glyph unicode="U" d="M82 471v1126h164v-1126q0 -142 99 -245t241 -103q144 0 246 102t102 246v1126h164v-1126q0 -213 -149.5 -362.5t-362.5 -149.5q-210 0 -357 151t-147 361z" />
<glyph unicode="V" horiz-adv-x="1597" d="M-57 1597h168l682 -1321l682 1321h172l-856 -1638z" />
<glyph unicode="W" horiz-adv-x="2458" d="M-57 1597h168l682 -1321l426 826l426 -826l682 1321h172l-857 -1638l-423 819l-428 -819z" />
<glyph unicode="X" d="M82 0l410 799l-410 798h164l342 -665l346 665h164l-416 -798l416 -799h-164l-346 666l-342 -666h-164z" />
<glyph unicode="Y" d="M82 1597h164l342 -665l346 665h164l-430 -825v-772h-164v774z" />
<glyph unicode="Z" horiz-adv-x="1167" d="M82 0l741 1434h-739v163h995l-749 -1433h749v-164h-997z" />
<glyph unicode="[" horiz-adv-x="696" d="M82 -164v2069h534v-164h-370v-1741h370v-164h-534z" />
<glyph unicode="\" horiz-adv-x="1270" d="M0 1741h190l1088 -1884h-191z" />
<glyph unicode="]" horiz-adv-x="696" d="M82 0h371v1741h-371v164h534v-2069h-534v164z" />
<glyph unicode="^" horiz-adv-x="676" d="M92 1409l170 330h158l172 -330h-164l-86 166l-86 -166h-164z" />
<glyph unicode="_" horiz-adv-x="1024" d="M0 -408h1024v-163h-1024v163z" />
<glyph unicode="`" horiz-adv-x="492" d="M82 1741h168l172 -328h-172z" />
<glyph unicode="a" d="M82 471q0 213 149.5 362.5t362.5 149.5q200 0 348 -137v96h164v-942h-164v94q-148 -135 -348 -135q-213 0 -362.5 149.5t-149.5 362.5zM246 471q0 -145 101.5 -246.5t246.5 -101.5q144 0 246 102t102 246q0 145 -101.5 246.5t-246.5 101.5t-246.5 -101.5t-101.5 -246.5z " />
<glyph unicode="b" d="M82 0v1741h164v-895q147 137 348 137q213 0 362.5 -149.5t149.5 -362.5t-149.5 -362.5t-362.5 -149.5q-200 0 -348 135v-94h-164zM246 471q0 -145 101.5 -246.5t246.5 -101.5q144 0 246 102t102 246q0 145 -101.5 246.5t-246.5 101.5t-246.5 -101.5t-101.5 -246.5z" />
<glyph unicode="c" horiz-adv-x="1028" d="M82 471q0 213 149.5 362.5t362.5 149.5q200 0 348 -137l-117 -115q-98 88 -231 88q-145 0 -246.5 -101.5t-101.5 -246.5t101.5 -246.5t246.5 -101.5q133 0 231 88l117 -117q-148 -135 -348 -135q-213 0 -362.5 149.5t-149.5 362.5z" />
<glyph unicode="d" d="M82 471q0 213 149.5 362.5t362.5 149.5q200 0 348 -137v895h164v-1741h-164v94q-148 -135 -348 -135q-213 0 -362.5 149.5t-149.5 362.5zM246 471q0 -145 101.5 -246.5t246.5 -101.5q144 0 246 102t102 246q0 145 -101.5 246.5t-246.5 101.5t-246.5 -101.5t-101.5 -246.5 z" />
<glyph unicode="e" d="M82 471q0 213 149.5 362.5t362.5 149.5t362.5 -149.5t149.5 -362.5q0 -41 -6 -82h-844q29 -118 122.5 -192t215.5 -74q133 0 231 88l117 -117q-148 -135 -348 -135q-213 0 -362.5 149.5t-149.5 362.5zM256 553h676q-27 117 -122 191.5t-216 74.5q-122 0 -215.5 -74 t-122.5 -192z" />
<glyph unicode="f" horiz-adv-x="758" d="M82 778v164h164v328q0 213 149.5 362.5t362.5 149.5v-164q-145 0 -246.5 -101.5t-101.5 -246.5v-328h163v-164h-163v-778h-164v778h-164z" />
<glyph unicode="g" d="M82 471q0 213 149.5 362.5t362.5 149.5q200 0 348 -137v96h164v-1044q0 -213 -149.5 -362.5t-362.5 -149.5q-200 0 -348 135l116 117q99 -89 232 -89q144 0 246 102.5t102 246.5v196q-148 -135 -348 -135q-213 0 -362.5 149.5t-149.5 362.5zM246 471q0 -145 101.5 -246.5 t246.5 -101.5q144 0 246 102t102 246q0 145 -101.5 246.5t-246.5 101.5t-246.5 -101.5t-101.5 -246.5z" />
<glyph unicode="h" d="M82 0v1741h164v-895q147 137 348 137q213 0 362.5 -149.5t149.5 -362.5v-471h-164v471q0 145 -101.5 246.5t-246.5 101.5t-246.5 -101.5t-101.5 -246.5v-471h-164z" />
<glyph unicode="i" horiz-adv-x="328" d="M82 0v942h164v-942h-164zM82 1319q0 34 24 58t58 24t58 -24t24 -58t-24 -58t-58 -24t-58 24t-24 58z" />
<glyph unicode="j" horiz-adv-x="430" d="M-164 -451q145 0 246.5 102t101.5 247v1044h164v-1044q0 -213 -149.5 -362.5t-362.5 -149.5v163zM184 1516q0 35 23.5 58t58.5 23t58.5 -23t23.5 -58q0 -34 -24 -58t-58 -24t-58 24t-24 58z" />
<glyph unicode="k" horiz-adv-x="860" d="M82 0v1741h164v-1096l297 297h233l-416 -416l527 -526h-234l-407 408v-408h-164z" />
<glyph unicode="l" horiz-adv-x="328" d="M82 0v1741h164v-1741h-164z" />
<glyph unicode="m" horiz-adv-x="2068" d="M82 0v942h164v-96q147 137 348 137q283 0 432 -238q159 238 457 238q210 0 358 -151t148 -361v-471h-164v471q0 145 -101.5 246.5t-246.5 101.5q-97 0 -189 -51q-182 -101 -182 -303v-465h-164v471q0 145 -101.5 246.5t-246.5 101.5t-246.5 -101.5t-101.5 -246.5v-471 h-164z" />
<glyph unicode="n" d="M82 0v942h164v-96q147 137 348 137q213 0 362.5 -149.5t149.5 -362.5v-471h-164v471q0 145 -101.5 246.5t-246.5 101.5t-246.5 -101.5t-101.5 -246.5v-471h-164z" />
<glyph unicode="o" d="M82 471q0 213 149.5 362.5t362.5 149.5t362.5 -149.5t149.5 -362.5t-149.5 -362.5t-362.5 -149.5t-362.5 149.5t-149.5 362.5zM246 471q0 -145 101.5 -246.5t246.5 -101.5q144 0 246 102t102 246q0 145 -101.5 246.5t-246.5 101.5t-246.5 -101.5t-101.5 -246.5z" />
<glyph unicode="p" d="M82 -573v1515h164v-94q148 135 348 135q213 0 362.5 -149.5t149.5 -362.5t-149.5 -362.5t-362.5 -149.5q-201 0 -348 137v-669h-164zM246 471q0 -145 101.5 -246.5t246.5 -101.5q144 0 246 102t102 246q0 145 -101.5 246.5t-246.5 101.5t-246.5 -101.5t-101.5 -246.5z " />
<glyph unicode="q" d="M82 471q0 213 149.5 362.5t362.5 149.5q200 0 348 -135v94h164v-1515h-164v669q-148 -137 -348 -137q-213 0 -362.5 149.5t-149.5 362.5zM246 471q0 -145 101.5 -246.5t246.5 -101.5q144 0 246 102t102 246q0 145 -101.5 246.5t-246.5 101.5t-246.5 -101.5t-101.5 -246.5 z" />
<glyph unicode="r" horiz-adv-x="678" d="M82 0v942h164v-96q147 137 348 137v-164q-145 0 -246.5 -101.5t-101.5 -246.5v-471h-164z" />
<glyph unicode="s" horiz-adv-x="758" d="M82 682q0 117 90 207t207 90q120 0 213 -90l-115 -117q-38 43 -98 43q-56 0 -94.5 -38.5t-38.5 -94.5t38.5 -94.5t94.5 -38.5q80 0 149 -39q148 -84 148 -254q0 -122 -87.5 -209.5t-209.5 -87.5q-120 0 -209 86l115 117q34 -39 94 -39q56 0 94.5 38.5t38.5 94.5 q0 57 -37.5 93t-95.5 36q-122 0 -209.5 87.5t-87.5 209.5z" />
<glyph unicode="t" horiz-adv-x="655" d="M82 942v164h164v489h164v-489h163v-164h-163v-942h-164v942h-164z" />
<glyph unicode="u" d="M82 471v471h164v-471q0 -142 99 -245t241 -103q144 0 246 102t102 246v471h164v-471q0 -213 -149.5 -362.5t-362.5 -149.5q-210 0 -357 151t-147 361z" />
<glyph unicode="v" horiz-adv-x="1167" d="M82 942h164l342 -666l346 666h164l-512 -983z" />
<glyph unicode="w" horiz-adv-x="2007" d="M82 942h164l342 -666l346 666h164l319 -666l346 666h164l-512 -983l-401 821l-428 -821z" />
<glyph unicode="x" horiz-adv-x="1229" d="M-29 0l527 526l-416 416h233l297 -297l297 297h234l-416 -416l526 -526h-233l-408 408l-407 -408h-234z" />
<glyph unicode="y" d="M82 942h164l342 -666l346 666h164l-791 -1515h-164l361 690z" />
<glyph unicode="z" horiz-adv-x="901" d="M82 778v164h735l-471 -778h471v-164h-733l471 778h-473z" />
<glyph unicode="{" horiz-adv-x="778" d="M82 891l317 164v686q0 121 82.5 205t204.5 84v-164q-51 0 -87 -37t-36 -88v-768l-164 -84l164 -84v-805q0 -53 35 -89t88 -36v-164q-122 0 -204.5 83t-82.5 206v725z" />
<glyph unicode="|" horiz-adv-x="328" d="M82 -164v2069h164v-2069h-164z" />
<glyph unicode="}" horiz-adv-x="778" d="M82 -125q53 0 88 36t35 89v805l164 84l-164 84v768q0 52 -35.5 88.5t-87.5 36.5v164q122 0 204.5 -84t82.5 -205v-686l317 -164l-317 -166v-725q0 -122 -82.5 -205.5t-204.5 -83.5v164z" />
<glyph unicode="~" horiz-adv-x="1067" d="M82 1479q0 125 86 211t211 86q107 0 183.5 -63.5t119.5 -63.5q56 0 94.5 38.5t38.5 94.5h164q0 -125 -86 -211t-211 -86q-100 0 -180 63.5t-123 63.5q-56 0 -94.5 -38.5t-38.5 -94.5h-164z" />
<glyph unicode="&#xa8;" horiz-adv-x="963" d="M82 1614q0 53 35 88t88 35q54 0 88.5 -34.5t34.5 -88.5q0 -53 -35 -88t-88 -35q-52 0 -87.5 35.5t-35.5 87.5zM631 1614q0 53 35 88t88 35q54 0 88.5 -34.5t34.5 -88.5q0 -53 -35 -88t-88 -35q-52 0 -87.5 35.5t-35.5 87.5z" />
<glyph unicode="&#xa9;" d="M82 1128q0 217 147.5 364.5t364.5 147.5q223 0 367.5 -144.5t144.5 -367.5q0 -291 -250 -440q-120 -72 -262 -72q-214 0 -363 149t-149 363zM164 1128q0 -178 126 -304t304 -126q183 0 306.5 123.5t123.5 306.5q0 186 -122.5 308.5t-307.5 122.5q-184 0 -307 -123.5 t-123 -307.5zM340 1128q0 109 73 182.5t183 73.5q102 0 172 -69l-57 -58q-45 46 -115 46q-74 0 -124 -50.5t-50 -124.5q0 -75 49.5 -124.5t124.5 -49.5q66 0 115 43l57 -59q-74 -68 -172 -68q-106 0 -181 76t-75 182z" />
<glyph unicode="&#xab;" horiz-adv-x="1536" d="M82 428l819 424v-168l-502 -258l502 -258v-168zM641 428l819 424v-168l-502 -258l502 -258v-168z" />
<glyph unicode="&#xad;" horiz-adv-x="1024" d="M82 473v164h862v-164h-862z" />
<glyph unicode="&#xae;" d="M82 1128q0 214 149 363t363 149q216 0 365 -148t149 -364q0 -213 -150.5 -362.5t-363.5 -149.5q-212 0 -362 150t-150 362zM166 1128q0 -179 124.5 -303.5t303.5 -124.5q180 0 305 124t125 304t-125 305.5t-305 125.5q-181 0 -304.5 -124.5t-123.5 -306.5zM498 860v471 h84v-49q69 70 172 70v-82q-74 0 -123 -50t-49 -124v-236h-84z" />
<glyph unicode="&#xb4;" horiz-adv-x="492" d="M82 1413l172 328h168l-168 -328h-172z" />
<glyph unicode="&#xb8;" horiz-adv-x="410" d="M20 -479l111 215q-49 35 -49 98q0 53 35 88t88 35q54 0 88.5 -34.5t34.5 -88.5q0 -32 -13 -57l-131 -256h-164z" />
<glyph unicode="&#xbb;" horiz-adv-x="1536" d="M84 0v168l502 258l-502 258v168l819 -424zM643 0v168l502 258l-502 258v168l819 -424z" />
<glyph unicode="&#x2c6;" horiz-adv-x="676" d="M92 1409l170 330h158l172 -330h-164l-86 166l-86 -166h-164z" />
<glyph unicode="&#x2da;" horiz-adv-x="573" d="M82 1581q0 85 60 145t145 60t145 -60t60 -145t-60 -145t-145 -60t-145 60t-60 145zM164 1581q0 -51 36 -87t87 -36q53 0 88 35t35 88q0 54 -34.5 88.5t-88.5 34.5q-53 0 -88 -35t-35 -88z" />
<glyph unicode="&#x2dc;" horiz-adv-x="1065" d="M80 1479q0 125 86 211t211 86q107 0 183.5 -63.5t119.5 -63.5q56 0 94.5 38.5t38.5 94.5h164q0 -125 -86 -211t-211 -86q-100 0 -180 63.5t-123 63.5q-56 0 -94.5 -38.5t-38.5 -94.5h-164z" />
<glyph unicode="&#x401;" d="M82 0v1597h1024v-163h-860v-594h737v-164h-737v-512h860v-164h-1024zM205 1860q0 54 34.5 88t88.5 34q123 0 123 -122q0 -54 -34.5 -88.5t-88.5 -34.5q-50 0 -86.5 36.5t-36.5 86.5zM754 1860q0 54 34.5 88t88.5 34q122 0 122 -122q0 -54 -34 -88.5t-88 -34.5 q-50 0 -86.5 36.5t-36.5 86.5z" />
<glyph unicode="&#x402;" horiz-adv-x="1559" d="M82 1434v163h901v-163h-367v-588q144 137 349 137q293 0 442 -252q70 -119 70 -260q0 -294 -256 -442q-121 -70 -256 -70v164q145 0 246.5 101.5t101.5 246.5t-101.5 246.5t-246.5 101.5q-146 0 -247.5 -101.5t-101.5 -246.5v-471h-163l-2 1434h-369z" />
<glyph unicode="&#x403;" horiz-adv-x="1065" d="M82 -2v1599h901v-165h-737v-1434h-164zM420 1739l172 327h168l-168 -327h-172z" />
<glyph unicode="&#x404;" horiz-adv-x="1597" d="M82 799q0 348 246 593.5t594 245.5q312 0 583 -237l-116 -113q-193 187 -467 187q-195 0 -351 -92q-159 -93 -245 -265q-62 -124 -74 -241h670v-164h-670q33 -267 217 -430.5t453 -163.5q274 0 467 186l116 -112q-243 -238 -583 -238q-349 0 -594.5 247.5t-245.5 596.5z " />
<glyph unicode="&#x405;" horiz-adv-x="1085" d="M82 1178q0 190 135.5 325t325.5 135q200 0 329 -135l-114 -114q-83 86 -215 86q-125 0 -211 -86t-86 -211q0 -111 77 -201q82 -96 220 -96q123 0 230 -62t169 -169t62 -230q0 -190 -135.5 -325.5t-325.5 -135.5q-193 0 -326 135l115 115q83 -86 211 -86q126 0 211.5 85.5 t85.5 211.5q0 127 -85.5 212t-211.5 85q-93 0 -177 36q-128 55 -206 170.5t-78 254.5z" />
<glyph unicode="&#x406;" horiz-adv-x="328" d="M82 0v1597h164v-1597h-164z" />
<glyph unicode="&#x407;" horiz-adv-x="328" d="M-225 1860q0 53 35 88t88 35q54 0 88.5 -34.5t34.5 -88.5q0 -53 -35 -88t-88 -35q-52 0 -87.5 35.5t-35.5 87.5zM82 0v1597h164v-1597h-164zM324 1860q0 53 35 88t88 35q54 0 88.5 -34.5t34.5 -88.5q0 -53 -35 -88t-88 -35q-52 0 -87.5 35.5t-35.5 87.5z" />
<glyph unicode="&#x408;" horiz-adv-x="430" d="M-164 -451q145 0 246.5 102t101.5 247v1701h164v-1701q0 -213 -149.5 -362.5t-362.5 -149.5v163z" />
<glyph unicode="&#x409;" horiz-adv-x="1389" d="M-57 0l856 1638l2 -618q210 0 358 -151t148 -361t-149 -361t-359 -151h-164v1012l-520 -1008h-172zM799 160q88 0 170 47q174 100 174 301q0 202 -174 301q-82 47 -170 47v-696z" />
<glyph unicode="&#x40a;" horiz-adv-x="1700" d="M82 0v1597h164v-757h696v757h164v-573q293 0 444 -256q68 -116 68 -256q0 -293 -254 -442q-119 -70 -258 -70h-164v676h-696v-676h-164zM1106 164q145 0 246.5 101.5t101.5 246.5t-101.5 246.5t-246.5 101.5v-696z" />
<glyph unicode="&#x40b;" horiz-adv-x="1556" d="M82 1434v163h901v-163h-369v-588q145 137 349 137q215 0 363.5 -148.5t148.5 -363.5v-475h-164v475q0 144 -102 246t-246 102q-146 0 -247.5 -101t-101.5 -247v-471h-163v1434h-369z" />
<glyph unicode="&#x40c;" horiz-adv-x="819" d="M82 0v1597h164v-665l346 665h164l-416 -798l416 -799h-164l-346 666v-666h-164zM311 1739l172 327h168l-168 -327h-172z" />
<glyph unicode="&#x40e;" horiz-adv-x="1597" d="M-57 1597h168l682 -1321l682 1321h172l-1049 -2011h-166l277 531zM508 1921h164q0 -50 36.5 -86.5t86.5 -36.5q53 0 88 35t35 88h163q0 -125 -80.5 -206t-205.5 -81q-176 0 -252 152q-35 70 -35 135z" />
<glyph unicode="&#x40f;" horiz-adv-x="1065" d="M82 0v1599h164v-1433h573v1431h164v-1597h-369v-164h-163v164h-369z" />
<glyph unicode="&#x410;" horiz-adv-x="1597" d="M-57 0q348 654 848 1638l856 -1638h-172l-250 487h-863l-251 -487h-168zM449 651h692l-348 670z" />
<glyph unicode="&#x411;" horiz-adv-x="840" d="M82 -2v1599h618v-163h-458v-410q215 0 363.5 -149.5t148.5 -364.5q0 -214 -147 -363t-361 -149h-164zM242 162q145 0 246.5 101.5t101.5 246.5q0 148 -100 248t-248 100v-696z" />
<glyph unicode="&#x412;" horiz-adv-x="840" d="M82 -2v1601q324 0 502 -149q170 -143 170 -363q0 -158 -88 -288q88 -131 88 -287q0 -260 -215 -396q-180 -114 -457 -118zM242 164q145 0 246.5 101.5t101.5 246.5q0 182 -152 287q152 114 152 288q0 148 -99.5 248.5t-248.5 100.5v-1272z" />
<glyph unicode="&#x413;" horiz-adv-x="1065" d="M82 -2v1599h901v-165h-737v-1434h-164z" />
<glyph unicode="&#x414;" horiz-adv-x="1597" d="M-57 -164v328h86l764 1474l768 -1474h86v-328h-168v164h-1373v-164h-163zM195 164h1194l-596 1159z" />
<glyph unicode="&#x415;" d="M82 0v1597h1024v-163h-860v-594h737v-164h-737v-512h860v-164h-1024z" />
<glyph unicode="&#x416;" horiz-adv-x="1335" d="M92 0l416 799l-416 798h164l346 -665v665h164v-665l346 665h164l-416 -798l416 -799h-164l-346 666v-666h-164v666l-346 -666h-164z" />
<glyph unicode="&#x417;" horiz-adv-x="1024" d="M82 94l117 117q94 -88 231 -88q145 0 246.5 101.5t101.5 246.5t-101.5 246.5t-246.5 101.5v164q104 0 173 71t69 175t-71 175t-175 71q-120 0 -219 -127l-125 102q127 188 344 188q178 0 294 -115.5t116 -293.5q0 -202 -148 -316q254 -146 254 -442q0 -293 -256 -442 q-120 -70 -256 -70q-201 0 -348 135z" />
<glyph unicode="&#x418;" horiz-adv-x="840" d="M82 -41v1638h164v-995l520 1036v-1638h-164v965z" />
<glyph unicode="&#x419;" horiz-adv-x="840" d="M82 -41v1638h164v-995l520 1036v-1638h-164v965zM135 1989h164q0 -54 34.5 -88.5t88.5 -34.5q51 0 87 36t36 87h164q0 -121 -83 -204t-204 -83q-124 0 -205.5 81.5t-81.5 205.5z" />
<glyph unicode="&#x41a;" horiz-adv-x="819" d="M82 0v1597h164v-665l346 665h164l-416 -798l416 -799h-164l-346 666v-666h-164z" />
<glyph unicode="&#x41b;" horiz-adv-x="1597" d="M-57 0l856 1638l848 -1638h-168l-682 1321l-682 -1321h-172z" />
<glyph unicode="&#x41c;" horiz-adv-x="1536" d="M82 0v1638l684 -1362l694 1362v-1638h-164v979l-532 -1020l-518 1006v-965h-164z" />
<glyph unicode="&#x41d;" d="M82 0v1597h164v-757h696v757h164v-1597h-164v676h-696v-676h-164z" />
<glyph unicode="&#x41e;" horiz-adv-x="1843" d="M82 799q0 348 246 593.5t594 245.5q354 0 596.5 -242.5t242.5 -596.5q0 -346 -256 -602q-238 -238 -583 -238q-346 0 -593 246.5t-247 593.5zM246 799q0 -284 196 -480t480 -196q285 0 480 195.5t195 480.5q0 190 -87 343q-89 157 -253 246q-159 87 -335 87 q-195 0 -351.5 -93.5t-244.5 -265.5q-80 -157 -80 -317z" />
<glyph unicode="&#x41f;" d="M82 0v1597h1024v-1597h-164v1434l-696 -2v-1432h-164z" />
<glyph unicode="&#x420;" horiz-adv-x="840" d="M82 -2v1601h164q214 0 361 -149t147 -363q0 -215 -148.5 -363.5t-363.5 -148.5l4 -577h-164zM242 739q147 0 247.5 100.5t100.5 247.5q0 148 -99.5 248.5t-248.5 100.5v-697z" />
<glyph unicode="&#x421;" horiz-adv-x="1597" d="M82 799q0 348 246 593.5t594 245.5q312 0 583 -237l-116 -113q-193 187 -467 187q-195 0 -351 -92q-159 -93 -245 -265q-80 -160 -80 -319q0 -293 192 -486.5t484 -193.5q274 0 467 186l116 -112q-243 -238 -583 -238q-349 0 -594.5 247.5t-245.5 596.5z" />
<glyph unicode="&#x422;" horiz-adv-x="1065" d="M82 1434v163h901v-163h-369v-1436h-163v1436h-369z" />
<glyph unicode="&#x423;" horiz-adv-x="1597" d="M-57 1597h168l682 -1321l682 1321h172l-1049 -2011h-166l277 531z" />
<glyph unicode="&#x424;" horiz-adv-x="1843" d="M82 799q0 323 217.5 565.5t538.5 269.5v164h163v-164q323 -29 541.5 -270t218.5 -565q0 -323 -219 -564.5t-541 -271.5v-164h-163v164q-320 31 -538 272.5t-218 563.5zM246 799q0 -261 166.5 -449t425.5 -221v1341q-251 -23 -421.5 -219.5t-170.5 -451.5zM1001 127 q253 24 426 222q170 195 170 450q0 264 -167 451.5t-429 219.5v-1343z" />
<glyph unicode="&#x425;" d="M82 0l410 799l-410 798h164l342 -665l346 665h164l-416 -798l416 -799h-164l-346 666l-342 -666h-164z" />
<glyph unicode="&#x426;" horiz-adv-x="1147" d="M82 0v1599h164v-1433h573v1431h164v-1429h164v-332h-164v164h-901z" />
<glyph unicode="&#x427;" d="M82 1124v471h164v-471q0 -145 101.5 -246.5t246.5 -101.5t246.5 101.5t101.5 246.5v471h164v-1595h-164v750q-143 -138 -348 -138q-209 0 -360.5 151.5t-151.5 360.5z" />
<glyph unicode="&#x428;" horiz-adv-x="1790" d="M82 0v1599h164v-1433h573v1431h164q2 -80 2 -374l-2 -1057h571v1431h164v-1597h-1636z" />
<glyph unicode="&#x429;" horiz-adv-x="1884" d="M82 0v1599h164v-1433h573v1431h164v-1431h573v1431h164l-2 -1429h166v-332h-164v164h-1638z" />
<glyph unicode="&#x42a;" horiz-adv-x="1204" d="M82 1434v163h532v-577q134 0 252 -70q256 -152 256 -442q0 -293 -254 -442q-119 -70 -254 -70h-163v1438h-369zM614 160q89 0 170 47q174 101 174 301q0 201 -174 301q-82 47 -170 47v-696z" />
<glyph unicode="&#x42b;" horiz-adv-x="1085" d="M82 -4v1601h164v-577q211 0 359.5 -150.5t148.5 -361.5q0 -214 -147 -363t-361 -149h-164zM246 160q145 0 244.5 101.5t99.5 246.5q0 146 -99 247t-245 101v-696zM840 0v1597h164v-1597h-164z" />
<glyph unicode="&#x42c;" horiz-adv-x="840" d="M82 -4v1601h164l-4 -577q293 0 442 -254q70 -119 70 -258q0 -214 -147 -363t-361 -149h-164zM242 160q145 0 246.5 101.5t101.5 246.5q0 148 -100 248t-248 100v-696z" />
<glyph unicode="&#x42d;" horiz-adv-x="1597" d="M80 193l117 112q192 -186 467 -186q266 0 451 164.5t218 429.5h-667v164h667q-27 264 -215 431t-454 167q-275 0 -467 -187l-117 113q262 237 584 237q231 0 419 -108.5t304 -308t116 -422.5q0 -231 -108.5 -420.5t-308 -306.5t-422.5 -117q-340 0 -584 238z" />
<glyph unicode="&#x42e;" horiz-adv-x="2171" d="M82 0v1597h164v-716h168q15 193 131 372q119 184 302.5 284.5t401.5 100.5q355 0 597.5 -242t242.5 -597q0 -353 -243.5 -596.5t-596.5 -243.5q-323 0 -564 218t-271 540h-168v-717h-164zM573 799q0 -195 93 -351t266 -245q156 -80 317 -80q194 0 351 92.5t245 263.5 q80 154 80 320q0 192 -92 351q-96 164 -264 247q-158 78 -320 78q-194 0 -351 -94t-245 -265q-80 -156 -80 -317z" />
<glyph unicode="&#x42f;" horiz-adv-x="840" d="M82 1087q0 293 254 443q117 69 254 69h164v-1599h-164v575l-291 -575h-164l307 598q-159 51 -259.5 187t-100.5 302zM246 1087q0 -145 101.5 -246.5t246.5 -101.5v697q-146 0 -247 -102t-101 -247z" />
<glyph unicode="&#x430;" d="M82 471q0 132 70 254q148 258 442 258q199 0 348 -137v96h164v-942h-164v94q-147 -135 -348 -135q-213 0 -362.5 149.5t-149.5 362.5zM246 471q0 -145 101.5 -246.5t246.5 -101.5t246.5 101.5t101.5 246.5t-101.5 246.5t-246.5 101.5t-246.5 -101.5t-101.5 -246.5z" />
<glyph unicode="&#x431;" d="M82 471v758q0 216 148 364t364 148h348v-164h-348q-204 0 -301 -172q-47 -83 -47 -176v-383q143 137 348 137q293 0 444 -256q68 -115 68 -256q0 -295 -254 -442q-121 -70 -258 -70q-213 0 -362.5 149.5t-149.5 362.5zM246 471q0 -145 101.5 -246.5t246.5 -101.5 t246.5 101.5t101.5 246.5t-101.5 246.5t-246.5 101.5t-246.5 -101.5t-101.5 -246.5z" />
<glyph unicode="&#x432;" horiz-adv-x="727" d="M82 0v954h285q122 0 200 -78t78 -200q0 -127 -76 -197q76 -77 76 -200q0 -120 -79 -199.5t-199 -79.5h-285zM246 160h121q53 0 86.5 33t33.5 86q0 52 -34 85t-86 33h-121v-237zM246 557h121q53 0 86.5 33t33.5 86q0 52 -34 85.5t-86 33.5h-121v-238z" />
<glyph unicode="&#x433;" horiz-adv-x="758" d="M82 256q0 167 147 254q66 39 150 39q56 0 94.5 38.5t38.5 94.5t-38.5 94.5t-94.5 38.5q-58 0 -98 -43l-115 117q96 90 213 90q122 0 209.5 -87t87.5 -210q0 -172 -150 -256q-32 -18 -115 -33t-114 -35q-51 -32 -51 -102q0 -56 38.5 -94.5t94.5 -38.5q61 0 94 39l115 -117 q-89 -86 -209 -86q-173 0 -256 150q-41 74 -41 147z" />
<glyph unicode="&#x434;" d="M82 471q0 132 70 254q148 258 442 258q199 0 348 -137v96h164v-1044q0 -294 -254 -443q-118 -69 -258 -69q-201 0 -348 135l116 117q95 -89 232 -89q145 0 246.5 101.5t101.5 247.5v196q-147 -135 -348 -135q-213 0 -362.5 149.5t-149.5 362.5zM246 471 q0 -145 101.5 -246.5t246.5 -101.5t246.5 101.5t101.5 246.5t-101.5 246.5t-246.5 101.5t-246.5 -101.5t-101.5 -246.5z" />
<glyph unicode="&#x435;" d="M82 471q0 132 70 254q148 258 442 258q293 0 444 -256q68 -115 68 -256q0 -42 -6 -82h-844q27 -116 122.5 -191t215.5 -75q137 0 231 88l117 -117q-147 -135 -348 -135q-213 0 -362.5 149.5t-149.5 362.5zM256 553h676q-28 120 -121.5 193t-216.5 73q-122 0 -216.5 -73.5 t-121.5 -192.5z" />
<glyph unicode="&#x436;" horiz-adv-x="1393" d="M-27 0l527 526l-416 416h233l297 -297v1096h164v-1096l297 297h234l-416 -416l526 -526h-233l-408 408v-408h-164v408l-407 -408h-234z" />
<glyph unicode="&#x437;" horiz-adv-x="961" d="M82 -487l108 106q95 -82 213 -82q133 0 222.5 95t89.5 229q0 132 -90 224.5t-222 92.5v170q100 4 164 70t64 166q0 105 -65 170t-171 65q-96 0 -172 -69l-108 120q118 113 280 113q172 0 286 -114t114 -285q0 -187 -152 -314q236 -137 236 -409q0 -197 -139.5 -335 t-336.5 -138q-190 0 -321 125z" />
<glyph unicode="&#x438;" d="M82 471l2 471h164v-471q0 -148 99 -248t247 -100q144 0 246 101t102 245v471h166l-2 -940h-164v94q-147 -135 -348 -135q-211 0 -362 150.5t-150 361.5z" />
<glyph unicode="&#x439;" d="M82 471l2 471h164v-471q0 -148 99 -248t247 -100q144 0 246 101t102 245v471h166l-2 -940h-164v94q-147 -135 -348 -135q-211 0 -362 150.5t-150 361.5zM305 1587h164q0 -50 37.5 -86.5t87.5 -36.5q54 0 87.5 34.5t33.5 88.5h164q0 -124 -80.5 -205.5t-204.5 -81.5 q-178 0 -254 152q-35 70 -35 135z" />
<glyph unicode="&#x43a;" horiz-adv-x="860" d="M82 0v1741h164v-1096l297 297h233l-416 -416l527 -526h-234l-407 408v-408h-164z" />
<glyph unicode="&#x43b;" horiz-adv-x="1167" d="M78 -2l512 983l504 -983h-164l-342 666l-346 -666h-164z" />
<glyph unicode="&#x43c;" horiz-adv-x="2007" d="M80 0l514 983l399 -821l428 821l504 -983h-164l-342 666l-346 -666h-164l-317 666l-346 -666h-166z" />
<glyph unicode="&#x43d;" d="M82 0v942h164v-430h696v430h164v-942h-164v348h-696v-348h-164z" />
<glyph unicode="&#x43e;" d="M82 471q0 132 70 254q148 258 442 258t444 -256q68 -116 68 -256q0 -295 -254 -442q-121 -70 -258 -70q-213 0 -362.5 149.5t-149.5 362.5zM246 471q0 -145 101.5 -246.5t246.5 -101.5t246.5 101.5t101.5 246.5t-101.5 246.5t-246.5 101.5t-246.5 -101.5t-101.5 -246.5z " />
<glyph unicode="&#x43f;" d="M82 0v942h164v-96q143 137 348 137q293 0 444 -256q68 -115 68 -256v-471h-164v471q0 145 -101.5 246.5t-246.5 101.5t-246.5 -101.5t-101.5 -246.5v-471h-164z" />
<glyph unicode="&#x440;" d="M82 -573v1515h164v-94q147 135 348 135q293 0 444 -256q68 -116 68 -256q0 -295 -254 -442q-121 -70 -258 -70q-205 0 -348 137v-669h-164zM246 471q0 -145 101.5 -246.5t246.5 -101.5t246.5 101.5t101.5 246.5t-101.5 246.5t-246.5 101.5t-246.5 -101.5t-101.5 -246.5z " />
<glyph unicode="&#x441;" horiz-adv-x="1028" d="M82 471q0 132 70 254q148 258 442 258q199 0 348 -137l-117 -115q-94 88 -231 88q-145 0 -246.5 -101.5t-101.5 -246.5t101.5 -246.5t246.5 -101.5q137 0 231 88l117 -117q-147 -135 -348 -135q-213 0 -362.5 149.5t-149.5 362.5z" />
<glyph unicode="&#x442;" horiz-adv-x="2068" d="M82 0v942h164v-96q143 137 348 137q278 0 432 -238q163 238 459 238q94 0 192 -41q145 -61 228.5 -187t83.5 -284v-471h-164v471q0 142 -97.5 245t-238.5 103h-12q-91 0 -185 -49q-186 -97 -186 -305v-465h-164v471q0 145 -101.5 246.5t-246.5 101.5t-246.5 -101.5 t-101.5 -246.5v-471h-164z" />
<glyph unicode="&#x443;" d="M82 942h164l342 -666l346 666h164l-791 -1515h-164l361 690z" />
<glyph unicode="&#x444;" horiz-adv-x="2048" d="M82 471q0 132 70 254q148 258 442 258q199 0 348 -137v751h164v-749q147 135 348 135q294 0 442 -252q70 -119 70 -260q0 -293 -256 -442q-121 -70 -256 -70q-205 0 -348 137v-669h-164v667q-147 -135 -348 -135q-213 0 -362.5 149.5t-149.5 362.5zM246 471 q0 -145 101.5 -246.5t246.5 -101.5t246.5 101.5t101.5 246.5t-101.5 246.5t-246.5 101.5t-246.5 -101.5t-101.5 -246.5zM1106 471q0 -202 176 -301q84 -47 172 -47q145 0 246.5 101.5t101.5 246.5t-101.5 246.5t-246.5 101.5t-246.5 -101.5t-101.5 -246.5z" />
<glyph unicode="&#x445;" horiz-adv-x="1229" d="M-29 0l527 526l-416 416h233l297 -297l297 297h234l-416 -416l526 -526h-233l-408 408l-407 -408h-234z" />
<glyph unicode="&#x446;" horiz-adv-x="1270" d="M82 471l2 471h164v-471q0 -149 98.5 -247.5t247.5 -98.5q146 0 247 99t101 245v471h164v-776h164v-328h-164v164h-166v96q-143 -137 -346 -137q-211 0 -362 150.5t-150 361.5z" />
<glyph unicode="&#x447;" horiz-adv-x="963" d="M82 676v266h164v-266q0 -147 119 -207q58 -29 114 -29q102 0 170 67t68 169v264h164v-940h-164v352q-112 -76 -238 -76q-171 0 -284 114.5t-113 285.5z" />
<glyph unicode="&#x448;" horiz-adv-x="2068" d="M82 471v471h164v-471q0 -202 174 -301q82 -47 174 -47q155 0 263 100t108 254v465h163v-471q0 -145 101.5 -246.5t247.5 -101.5q202 0 301 176q47 84 47 172v471h164v-942h-164v96q-150 -137 -348 -137q-132 0 -247 63q-118 64 -186 175q-165 -238 -450 -238 q-215 0 -363.5 148.5t-148.5 363.5z" />
<glyph unicode="&#x449;" horiz-adv-x="2152" d="M82 471v471h164v-471q0 -202 174 -301q82 -47 174 -47q155 0 263 100t108 254v465h163v-471q0 -145 101.5 -246.5t247.5 -101.5q202 0 301 176q47 84 47 172v471h164v-778h163v-328h-163v164h-164v96q-150 -137 -348 -137q-132 0 -247 63q-118 64 -186 175 q-165 -238 -450 -238q-215 0 -363.5 148.5t-148.5 363.5z" />
<glyph unicode="&#x44a;" horiz-adv-x="895" d="M82 778v164h330v-143q171 0 286 -116t115 -286q0 -168 -113.5 -282.5t-281.5 -114.5h-170v778h-166zM412 164q142 0 206 119q31 58 31 114q0 160 -145 219q-47 19 -92 19v-471z" />
<glyph unicode="&#x44b;" horiz-adv-x="977" d="M82 0v942h164v-143q169 0 285 -116.5t116 -285.5q0 -164 -115.5 -280.5t-279.5 -116.5h-170zM246 164q104 0 170.5 64.5t66.5 168.5q0 161 -145 219q-47 19 -92 19v-471zM729 0v942h164v-942h-164z" />
<glyph unicode="&#x44c;" horiz-adv-x="709" d="M82 0v942h164v-143q169 0 285 -116.5t116 -285.5q0 -164 -115.5 -280.5t-279.5 -116.5h-170zM246 164q104 0 170.5 64.5t66.5 168.5q0 161 -145 219q-47 19 -92 19v-471z" />
<glyph unicode="&#x44d;" horiz-adv-x="1028" d="M82 96l117 115q94 -88 231 -88q200 0 301 174q28 48 37 92h-338v164h338q-22 116 -120 191t-218 75q-137 0 -231 -88l-117 117q147 135 348 135q213 0 362.5 -149.5t149.5 -362.5q0 -216 -148 -364t-364 -148q-199 0 -348 137z" />
<glyph unicode="&#x44e;" horiz-adv-x="1516" d="M82 0v942h164v-389h170q32 188 173.5 309t332.5 121q293 0 444 -256q68 -115 68 -256q0 -295 -254 -442q-121 -70 -258 -70q-190 0 -332.5 121.5t-173.5 308.5h-170v-389h-164zM573 471q0 -146 102 -247t247 -101t246.5 101.5t101.5 246.5q0 148 -100 248t-248 100 q-145 0 -247 -101t-102 -247z" />
<glyph unicode="&#x44f;" horiz-adv-x="731" d="M82 547q0 170 116.5 283.5t286.5 111.5l164 -2l-4 -940h-162l-2 141l-174 -141h-223l215 186q-5 3 -20 13q-197 124 -197 348zM246 545q0 -161 145 -219q47 -19 92 -19l2 471q-101 0 -170 -66t-69 -167z" />
<glyph unicode="&#x451;" d="M82 471q0 132 70 254q148 258 442 258q293 0 444 -256q68 -115 68 -256q0 -42 -6 -82h-844q27 -116 122.5 -191t215.5 -75q137 0 231 88l117 -117q-147 -135 -348 -135q-213 0 -362.5 149.5t-149.5 362.5zM205 1473q0 54 34.5 88t88.5 34q123 0 123 -122 q0 -54 -34.5 -88.5t-88.5 -34.5q-50 0 -86.5 36.5t-36.5 86.5zM256 553h676q-28 120 -121.5 193t-216.5 73q-122 0 -216.5 -73.5t-121.5 -192.5zM754 1473q0 54 34.5 88t88.5 34q122 0 122 -122q0 -54 -34 -88.5t-88 -34.5q-50 0 -86.5 36.5t-36.5 86.5z" />
<glyph unicode="&#x452;" horiz-adv-x="1350" d="M82 1157v164h164v420h164v-420h163v-164h-163v-311q145 137 346 137q295 0 444 -256q68 -117 68 -256q0 -295 -254 -442q-121 -70 -258 -70v164q149 0 248.5 99t99.5 249q0 148 -100 248t-248 100q-144 0 -246 -102t-102 -246v-471h-162v1157h-164z" />
<glyph unicode="&#x453;" horiz-adv-x="758" d="M82 256q0 167 147 254q66 39 150 39q56 0 94.5 38.5t38.5 94.5t-38.5 94.5t-94.5 38.5q-58 0 -98 -43l-115 117q96 90 213 90q122 0 209.5 -87t87.5 -210q0 -172 -150 -256q-32 -18 -115 -33t-114 -35q-51 -32 -51 -102q0 -56 38.5 -94.5t94.5 -38.5q61 0 94 39l115 -117 q-89 -86 -209 -86q-173 0 -256 150q-41 74 -41 147zM279 1272l172 327h167l-167 -327h-172z" />
<glyph unicode="&#x454;" horiz-adv-x="1028" d="M82 471q0 132 70 254q148 258 442 258q199 0 348 -137l-117 -115q-94 88 -231 88q-198 0 -301 -174q-28 -48 -37 -92h338v-164h-338q22 -116 120 -191t218 -75q137 0 231 88l117 -117q-147 -135 -348 -135q-213 0 -362.5 149.5t-149.5 362.5z" />
<glyph unicode="&#x455;" horiz-adv-x="758" d="M82 682q0 117 90 207t207 90q120 0 213 -90l-115 -117q-38 43 -98 43q-56 0 -94.5 -38.5t-38.5 -94.5t38.5 -94.5t94.5 -38.5q80 0 149 -39q148 -84 148 -254q0 -122 -87.5 -209.5t-209.5 -87.5q-120 0 -209 86l115 117q34 -39 94 -39q56 0 94.5 38.5t38.5 94.5 q0 57 -37.5 93t-95.5 36q-122 0 -209.5 87.5t-87.5 209.5z" />
<glyph unicode="&#x456;" horiz-adv-x="328" d="M82 0v942h164v-942h-164zM82 1319q0 34 24 58t58 24t58 -24t24 -58t-24 -58t-58 -24t-58 24t-24 58z" />
<glyph unicode="&#x457;" horiz-adv-x="328" d="M-207 1473q0 53 35 88t88 35q54 0 88.5 -34.5t34.5 -88.5q0 -53 -35 -88t-88 -35q-52 0 -87.5 35.5t-35.5 87.5zM82 0v942h164v-942h-164zM342 1473q0 53 35 88t88 35q54 0 88.5 -34.5t34.5 -88.5q0 -53 -35 -88t-88 -35q-52 0 -87.5 35.5t-35.5 87.5z" />
<glyph unicode="&#x458;" horiz-adv-x="430" d="M-164 -451q145 0 246.5 102t101.5 247v1044h164v-1044q0 -213 -149.5 -362.5t-362.5 -149.5v163zM184 1516q0 35 23.5 58t58.5 23t58.5 -23t23.5 -58q0 -34 -24 -58t-58 -24t-58 24t-24 58z" />
<glyph unicode="&#x459;" horiz-adv-x="1423" d="M78 -2l512 983l112 -217q123 53 209 53q184 0 307 -123.5t123 -308.5q0 -272 -247 -387h-164l-342 666l-346 -666h-164zM776 616l244 -473q158 78 158 242q0 117 -75 192.5t-192 75.5q-73 0 -135 -37z" />
<glyph unicode="&#x45a;" horiz-adv-x="1425" d="M82 0v942h164v-430h532v430h164v-143q172 0 286.5 -114.5t114.5 -287.5q0 -167 -114 -282t-281 -115h-170v348h-532v-348h-164zM942 164q102 0 170 65.5t68 167.5q0 160 -146 219q-47 19 -92 19v-471z" />
<glyph unicode="&#x45b;" horiz-adv-x="1352" d="M82 1157v164h164v420h164v-420h163v-164h-163v-311q145 137 348 137q294 0 444 -256q68 -116 68 -256v-471h-164v471q0 148 -100 248t-248 100q-144 0 -246 -102t-102 -246v-471h-164v1157h-164z" />
<glyph unicode="&#x45c;" horiz-adv-x="860" d="M82 0v1741h164v-1096l297 297h233l-416 -416l527 -526h-234l-407 408v-408h-164zM342 1272l170 327h170l-170 -327h-170z" />
<glyph unicode="&#x45e;" d="M82 942h164l342 -666l346 666h164l-791 -1515h-164l361 690zM305 1587h164q0 -50 37.5 -86.5t87.5 -36.5q54 0 87.5 34.5t33.5 88.5h164q0 -124 -80.5 -205.5t-204.5 -81.5q-178 0 -254 152q-35 70 -35 135z" />
<glyph unicode="&#x45f;" horiz-adv-x="1065" d="M82 0v942h164v-776h573v774h164v-940h-369v-164h-163v164h-369z" />
<glyph unicode="&#x490;" horiz-adv-x="1065" d="M82 -2v1599h737v164h164v-329h-737v-1434h-164z" />
<glyph unicode="&#x491;" horiz-adv-x="758" d="M82 682q0 119 89 208t208 89h133v164h164v-328h-297q-56 0 -94.5 -38.5t-38.5 -94.5t38.5 -94.5t94.5 -38.5q168 0 258 -146q39 -64 39 -147q0 -171 -150 -256q-72 -41 -147 -41q-120 0 -209 86l115 117q33 -39 94 -39q56 0 94.5 38.5t38.5 94.5q0 59 -36.5 94t-96.5 35 q-173 0 -256 150q-41 74 -41 147z" />
<glyph unicode="&#x2000;" horiz-adv-x="1033" />
<glyph unicode="&#x2001;" horiz-adv-x="2066" />
<glyph unicode="&#x2002;" horiz-adv-x="1033" />
<glyph unicode="&#x2003;" horiz-adv-x="2066" />
<glyph unicode="&#x2004;" horiz-adv-x="688" />
<glyph unicode="&#x2005;" horiz-adv-x="516" />
<glyph unicode="&#x2006;" horiz-adv-x="344" />
<glyph unicode="&#x2007;" horiz-adv-x="344" />
<glyph unicode="&#x2008;" horiz-adv-x="258" />
<glyph unicode="&#x2009;" horiz-adv-x="413" />
<glyph unicode="&#x200a;" horiz-adv-x="114" />
<glyph unicode="&#x2010;" horiz-adv-x="1024" d="M82 473v164h862v-164h-862z" />
<glyph unicode="&#x2011;" horiz-adv-x="1024" d="M82 473v164h862v-164h-862z" />
<glyph unicode="&#x2012;" horiz-adv-x="1024" d="M82 473v164h862v-164h-862z" />
<glyph unicode="&#x2013;" d="M82 473v164h1026v-164h-1026z" />
<glyph unicode="&#x2014;" horiz-adv-x="2212" d="M82 473v164h2050v-164h-2050z" />
<glyph unicode="&#x2018;" horiz-adv-x="410" d="M80 1659q0 54 34.5 88.5t88.5 34.5q52 0 87.5 -35.5t35.5 -87.5q0 -64 -50 -98l111 -215h-164l-131 256q-1 1 -1 3q-11 22 -11 54z" />
<glyph unicode="&#x2019;" horiz-adv-x="389" d="M20 1346l111 215q-49 35 -49 98q0 53 35 88t88 35q54 0 88.5 -34.5t34.5 -88.5q0 -32 -13 -57l-131 -256h-164z" />
<glyph unicode="&#x201a;" horiz-adv-x="410" d="M-82 -188l111 215q-49 35 -49 98q0 52 35 87.5t87 35.5q55 0 89 -34t34 -89q0 -34 -12 -57l-131 -256h-164z" />
<glyph unicode="&#x201c;" horiz-adv-x="778" d="M80 1659q0 54 34.5 88.5t88.5 34.5q52 0 87.5 -35.5t35.5 -87.5q0 -64 -50 -98l111 -215h-164l-131 256q-1 1 -1 3q-11 22 -11 54zM467 1659q0 54 34.5 88.5t88.5 34.5q52 0 87.5 -35.5t35.5 -87.5q0 -64 -50 -98l111 -215h-164l-131 256q-1 1 -1 3q-11 22 -11 54z" />
<glyph unicode="&#x201d;" horiz-adv-x="778" d="M0 1346l111 215q-50 35 -50 98q0 51 36 87t87 36q55 0 89 -34t34 -89q0 -34 -12 -57l-131 -256h-164zM387 1346l111 215q-49 35 -49 98q0 52 35 87.5t87 35.5q55 0 89 -34t34 -89q0 -34 -12 -57l-131 -256h-164z" />
<glyph unicode="&#x201e;" horiz-adv-x="778" d="M-82 -190l111 215q-49 35 -49 98q0 52 35 87.5t87 35.5q55 0 89 -34t34 -89q0 -34 -12 -57l-131 -256h-164zM305 -190l111 215q-49 35 -49 98q0 52 35 87.5t87 35.5q55 0 89 -34t34 -89q0 -34 -12 -57l-131 -256h-164z" />
<glyph unicode="&#x2026;" horiz-adv-x="1229" d="M82 123q0 53 35 88t88 35q54 0 88.5 -34.5t34.5 -88.5q0 -53 -35 -88t-88 -35q-52 0 -87.5 35.5t-35.5 87.5zM492 123q0 52 35 87.5t87 35.5q55 0 89 -34t34 -89q0 -54 -34.5 -88.5t-88.5 -34.5q-52 0 -87 35.5t-35 87.5zM901 123q0 53 35 88t88 35q55 0 89 -34t34 -89 q0 -54 -34.5 -88.5t-88.5 -34.5q-52 0 -87.5 35.5t-35.5 87.5z" />
<glyph unicode="&#x202f;" horiz-adv-x="413" />
<glyph unicode="&#x2039;" horiz-adv-x="983" d="M82 428l819 424v-168l-502 -258l502 -258v-168z" />
<glyph unicode="&#x203a;" horiz-adv-x="983" d="M82 0v168l502 258l-502 258v168l819 -424z" />
<glyph unicode="&#x205f;" horiz-adv-x="516" />
<glyph unicode="&#x2122;" horiz-adv-x="1270" d="M0 1516v83h451v-83h-183v-717h-82l-2 717h-184zM492 799v819l342 -680l346 680v-819h-84v489l-265 -510l-256 504v-483h-83z" />
<glyph unicode="&#xe000;" horiz-adv-x="940" d="M0 0v940h940v-940h-940z" />
</font>
</defs>
</svg>
